# xmcd
#
# Track frame offsets: 
#        150
#        26274
#        44673
#        64688
#        85650
#        105262
#        124243
#        134911
#        154043
#        161245
#        184081
#        211148
#
# Disc length: 3044 seconds
#
# Revision: 3
# Processed by: cddbd v1.5.2PL0 Copyright (c) Steve Scherf et al.
# Submitted via: ExactAudioCopy v0.99pb4
#
DISCID=a10be20c
DTITLE=Morcheba - Big Calm
DYEAR=1998
DGENRE=Trip-Hop
TTITLE0=The Sea
TTITLE1=Shoulder Holster
TTITLE2=Part Of The Process
TTITLE3=Blindfold
TTITLE4=Let Me See
TTITLE5=Bullet Proof
TTITLE6=Over and Over
TTITLE7=Friction
TTITLE8=Diggin' A Watery Grave
TTITLE9=Fear and Love
TTITLE10=Big Calm
TTITLE11=The Music That We Hear
EXTD=
EXTT0=
EXTT1=
EXTT2=
EXTT3=
EXTT4=
EXTT5=
EXTT6=
EXTT7=
EXTT8=
EXTT9=
EXTT10=
EXTT11=
PLAYORDER=
